
        <svg xmlns="http://www.w3.org/2000/svg" xmlns:xlink="http://www.w3.org/1999/xlink" version="1.1" width="3162.1621621621625" height="1513.5135135135138" viewBox="0 0 3162.1621621621625 1513.5135135135138">
&#x9;&#x9;&#x9;
&#x9;&#x9;&#x9;<g transform="scale(8.108108108108109) translate(10, 10)">
&#x9;&#x9;&#x9;&#x9;<defs id="SvgjsDefs1001"></defs><g id="SvgjsG1007" featureKey="symbolFeature-0" transform="matrix(5.555555555555555,0,0,5.555555555555555,-38.888888888888886,-5.555555555555555)" fill="#222831"><title xmlns="http://www.w3.org/2000/svg">Money, Bank, transaction, tool, savings, gold</title><polygon xmlns="http://www.w3.org/2000/svg" points="19.59 5 23.59 1 8.41 1 12.41 5 19.59 5"></polygon><polygon xmlns="http://www.w3.org/2000/svg" points="11 6.41 7 2.41 7 29.59 11 25.59 11 6.41"></polygon><polygon xmlns="http://www.w3.org/2000/svg" points="21 6.41 21 25.59 25 29.59 25 2.41 21 6.41"></polygon><polygon xmlns="http://www.w3.org/2000/svg" points="19.59 27 12.41 27 8.41 31 23.59 31 19.59 27"></polygon><rect xmlns="http://www.w3.org/2000/svg" x="13" y="7" width="6" height="18"></rect></g><g id="SvgjsG1008" featureKey="nameFeature-0" transform="matrix(1.7745504297143617,0,0,1.7745504297143617,114.88929455934147,37.70704318567328)" fill="#222831"><path d="M2.88 39.614922 l4.63908 -4.29556 l14.00028 0 l0 4.68016 l-18.63932 0 l0 -0.384609 z M20.64604 36.194376 l-12.78344 0 l-3.167032 2.931876 l15.95048 0 l0 -2.931876 z M2.88 11.99984 l18.64024 0 l0 4.68016 l-14.00028 0 z M20.64608 15.80584 l0 -2.931876 l-15.66812 0 l2.906524 2.931876 l12.7616 0 z M2.88 28.3402 l0 -4.63996 l18.63932 0 l0 4.63996 l-18.63932 0 z M3.75414 24.57436 l0 2.89168 l16.89104 0 l0 -2.89168 l-16.89104 0 z M31.60124 11.99908 l7.94772 10.20824 l-2.945 3.792032 l-10.974 -14.00028 l5.97124 0 z M36.60052 24.57796 l1.840936 -2.370664 l-7.2676 -9.33412 l-3.74832 0 z M25.63 39.99875 l10.97396 -14.00028 l2.945 3.792892 l-7.94768 10.2074 l-5.97124 0 z M31.1738 39.124608 l7.2676 -9.33412 l-1.840936 -2.370664 l-9.175 11.70476 l3.74832 0 z M53.4688 11.99908 l-10.9338 14.00028 l-2.986056 -3.792032 l7.9888 -10.20824 l5.93104 0 z M40.65996 22.20556 l1.87242 2.376796 l9.1444 -11.70916 l-3.71336 0 z M39.54896 29.79224 l2.986056 -3.792892 l10.9338 14.00028 l-5.93104 0 z M47.96344 39.124572 l3.71336 0 l-9.1444 -11.70916 l-1.87242 2.377656 z M64.96412 19.40304 c-0.833944 0.847928 -1.5 1.83664 -1.997384 2.966016 c-0.498244 1.130272 -0.746484 2.33922 -0.746484 3.631212 c0 1.290236 0.248242 2.500936 0.746484 3.630312 c0.497384 1.130272 1.169608 2.118944 2.01754 2.965976 c0.847032 0.847928 1.835704 1.512264 2.965976 1.996524 c1.129376 0.485156 2.33918 0.726408 3.630272 0.726408 l5.42668 3.590116 c-1.681836 0.726408 -3.489572 1.09004 -5.42668 1.09004 c-1.935352 0 -3.751836 -0.370625 -5.44592 -1.110156 c-1.69496 -0.740392 -3.181016 -1.74914 -4.45904 -3.026248 c-1.277108 -1.278008 -2.28586 -2.770156 -3.025392 -4.47824 c-0.740392 -1.708084 -1.110156 -3.503592 -1.110156 -5.38564 c0 -1.936212 0.369766 -3.752696 1.110156 -5.4468 c0.739532 -1.6941 1.74828 -3.174024 3.025392 -4.43716 c1.278008 -1.264884 2.76492 -2.26578 4.45904 -3.005312 c1.6941 -0.740392 3.509688 -1.110156 5.44588 -1.110156 c1.937108 0 3.744844 0.362774 5.42668 1.09008 c1.680976 0.726408 3.167032 1.734296 4.45812 3.026288 l-3.307772 3.26754 c-1.85582 -1.8025 -4.04816 -2.703752 -6.57616 -2.703752 c-1.291092 0 -2.507892 0.242148 -3.651248 0.726408 c-1.144256 0.484256 -2.132032 1.149492 -2.965976 1.996524 z M62.16688 29.98284 c-0.544608 -1.234296 -0.821016 -2.574376 -0.821016 -3.983476 c0 -1.408244 0.277109 -2.74918 0.82172 -3.984336 c0.53672 -1.220312 1.2675 -2.305116 2.173124 -3.225584 c0.912616 -0.9266 2.005312 -1.662616 3.24836 -2.188868 c1.246524 -0.527968 2.58922 -0.795468 3.991328 -0.795468 c2.467696 0 4.66704 0.798984 6.54908 2.375936 l2.075236 -2.049884 c-1.05422 -0.925704 -2.243048 -1.67746 -3.544648 -2.239532 c-1.562968 -0.674844 -3.271916 -1.0175 -5.07964 -1.0175 c-1.806836 0 -3.521016 0.348789 -5.09712 1.03586 c-1.58832 0.693204 -2.99918 1.644256 -4.19324 2.826092 c-1.193204 1.18008 -2.147772 2.581328 -2.83922 4.16528 c-0.687968 1.575196 -1.036756 3.290272 -1.036756 5.098 c0 1.754416 0.348789 3.449376 1.037616 5.03856 c0.691444 1.597072 1.647772 3.013164 2.841836 4.20812 c1.19496 1.193204 2.60496 2.150392 4.19068 2.842696 c1.576092 0.687968 3.291172 1.036756 5.09628 1.036756 c1.208048 0 2.37242 -0.152969 3.4791 -0.456288 l-3.746564 -2.479064 c-1.307736 -0.031484 -2.5534 -0.298086 -3.707264 -0.793712 c-1.228164 -0.525352 -2.318204 -1.259648 -3.239532 -2.181876 c-0.921328 -0.919608 -1.66086 -2.007032 -2.199336 -3.23172 z M104.76444 18.80592 c1.990428 1.991288 2.9991 4.41172 2.998244 7.19324 c0 2.780664 -1.007032 5.2134 -2.993944 7.23004 c-2.00004 1.970312 -4.4188 2.96422 -7.19944 2.96422 c-2.778008 0 -5.209 -0.992148 -7.22564 -2.950236 c-1.975548 -2.035 -2.968556 -4.46596 -2.968556 -7.244 c0 -2.779764 0.993908 -5.19852 2.954608 -7.18896 c2.025392 -1.996524 4.45812 -3.004416 7.23964 -3.004416 c2.78414 0 5.20464 1.009648 7.19508 3.00008 z M104.14636 32.61644 c1.828712 -1.85582 2.743084 -4.06044 2.743084 -6.6164 c0 -2.554256 -0.914336 -4.74576 -2.743048 -6.57532 s-4.02104 -2.743908 -6.57616 -2.743908 s-4.7606 0.914336 -6.6164 2.743908 c-1.8025 1.828712 -2.703752 4.0202 -2.703752 6.57532 s0.901248 4.7606 2.703752 6.6164 c1.85582 1.8025 4.0604 2.703752 6.61636 2.703752 c2.554256 0 4.7466 -0.901248 6.57616 -2.703752 z M107.45416 16.1152 c2.770156 2.743944 4.15568 6.03944 4.15652 9.8848 c0 3.900428 -1.385508 7.19592 -4.15568 9.8848 c-2.717696 2.743944 -6.01148 4.11548 -9.8848 4.11548 s-7.16884 -1.37242 -9.8848 -4.11548 c-2.743944 -2.716836 -4.11548 -6.01148 -4.11548 -9.8848 c0 -3.846212 1.371524 -7.14084 4.11548 -9.8848 c2.689728 -2.743944 5.98436 -4.11548 9.8848 -4.11548 c3.87246 0 7.16712 1.37242 9.88396 4.11548 z M106.83356 35.2694 c2.629416 -2.55336 3.902148 -5.58136 3.903008 -9.26936 c0 -3.636444 -1.274492 -6.6662 -3.896916 -9.26328 c-2.576092 -2.601444 -5.60584 -3.862852 -9.26936 -3.862852 c-3.690624 0 -6.71952 1.260508 -9.26068 3.853204 c-2.603204 2.603204 -3.865468 5.63472 -3.865468 9.27288 c0 3.664416 1.261408 6.69416 3.85672 9.26328 c2.575236 2.600584 5.605 3.861992 9.2694 3.861992 c3.662656 0 6.69332 -1.261408 9.26328 -3.85586 z M129.76048 26.0002 l14.00028 -14.00024 l0 27.99964 l-4.63996 0 l0 -16.74332 l-9.36032 9.36032 l-14.04048 -14.10168 l0 -6.515 z M142.88576 39.125468 l-0.000039 -25.01444 l-12.50812 12.50724 l-0.617148 0.617148 l-0.618008 -0.616288 l-12.54832 -12.51248 l0 4.04728 l13.16724 13.22492 l10.23272 -10.23272 l0 17.97936 l2.89168 0 z"></path></g>
&#x9;&#x9;&#x9;</g>
&#x9;&#x9;</svg>