
        <svg xmlns="http://www.w3.org/2000/svg" xmlns:xlink="http://www.w3.org/1999/xlink" version="1.1" width="3162.1621621621625" height="1513.5135135135138" viewBox="0 0 3162.1621621621625 1513.5135135135138">
&#x9;&#x9;&#x9;
&#x9;&#x9;&#x9;<g transform="scale(8.108108108108109) translate(10, 10)">
&#x9;&#x9;&#x9;&#x9;<defs id="SvgjsDefs1001"></defs><g id="SvgjsG1007" featureKey="symbolFeature-0" transform="matrix(5.555555555555555,0,0,5.555555555555555,-38.888888888888886,-5.555555555555555)" fill="#222831"><title xmlns="http://www.w3.org/2000/svg">Money, Bank, transaction, tool, savings, gold</title><polygon xmlns="http://www.w3.org/2000/svg" points="19.59 5 23.59 1 8.41 1 12.41 5 19.59 5"></polygon><polygon xmlns="http://www.w3.org/2000/svg" points="11 6.41 7 2.41 7 29.59 11 25.59 11 6.41"></polygon><polygon xmlns="http://www.w3.org/2000/svg" points="21 6.41 21 25.59 25 29.59 25 2.41 21 6.41"></polygon><polygon xmlns="http://www.w3.org/2000/svg" points="19.59 27 12.41 27 8.41 31 23.59 31 19.59 27"></polygon><rect xmlns="http://www.w3.org/2000/svg" x="13" y="7" width="6" height="18"></rect></g><g id="SvgjsG1008" featureKey="nameFeature-0" transform="matrix(1.7745600398409525,0,0,1.7745600398409525,114.88926688217578,37.7070547995058)" fill="#222831"><path d="M2.88 39.61492 l4.6392 -4.2956 l14 0 l0 4.6802 l-18.639 0 l0 -0.38461 z M20.646 36.1944 l-12.783 0 l-3.167 2.9319 l15.95 0 l0 -2.9319 z M2.88 12 l18.64 0 l0 4.6802 l-14 0 z M20.646 15.806000000000001 l0 -2.9319 l-15.668 0 l2.9065 2.9319 l12.762 0 z M2.88 28.34 l0 -4.64 l18.639 0 l0 4.64 l-18.639 0 z M3.7541 24.573999999999998 l0 2.8917 l16.891 0 l0 -2.8917 l-16.891 0 z M31.6012 11.998999999999999 l7.9476 10.208 l-2.945 3.792 l-10.974 -14 l5.9712 0 z M36.6 24.578 l1.8409 -2.3707 l-7.2676 -9.334 l-3.7483 0 z M25.63 39.99875 l10.974 -14 l2.945 3.7929 l-7.9476 10.208 l-5.9712 0 z M31.1736 39.1246 l7.2676 -9.334 l-1.8409 -2.3707 l-9.1752 11.705 l3.7483 0 z M53.469 11.998999999999999 l-10.934 14 l-2.986 -3.792 l7.9888 -10.208 l5.931 0 z M40.66 22.206 l1.8724 2.3768 l9.1444 -11.709 l-3.7134 0 z M39.549 29.792 l2.986 -3.7929 l10.934 14 l-5.931 0 z M47.964 39.12456 l3.7134 0 l-9.1444 -11.709 l-1.8724 2.3776 z M64.964 19.403 c-0.83396 0.84792 -1.5 1.8366 -1.9974 2.966 c-0.49824 1.1303 -0.74648 2.3392 -0.74648 3.6312 c0 1.2902 0.24824 2.5009 0.74648 3.6303 c0.4974 1.1303 1.1696 2.119 2.0175 2.966 c0.84704 0.84792 1.8357 1.5123 2.966 1.9965 c1.1294 0.48516 2.3392 0.7264 3.6303 0.7264 l5.4268 3.5901 c-1.6818 0.7264 -3.4896 1.09 -5.4268 1.09 c-1.9354 0 -3.7518 -0.37062 -5.446 -1.1102 c-1.695 -0.7404 -3.181 -1.7491 -4.4592 -3.0262 c-1.2771 -1.278 -2.2859 -2.7702 -3.0254 -4.4784 c-0.7404 -1.7081 -1.1102 -3.5036 -1.1102 -5.3856 c0 -1.9362 0.36976 -3.7527 1.1102 -5.4468 c0.73952 -1.6941 1.7483 -3.174 3.0254 -4.4372 c1.278 -1.2649 2.7649 -2.2658 4.4592 -3.0053 c1.6941 -0.7404 3.5097 -1.1102 5.446 -1.1102 c1.9371 0 3.7448 0.36277 5.4268 1.0901 c1.681 0.7264 3.167 1.7343 4.458 3.0263 l-3.3078 3.2676 c-1.8558 -1.8025 -4.048 -2.7038 -6.576 -2.7038 c-1.2911 0 -2.5079 0.24215 -3.6512 0.7264 c-1.1442 0.48424 -2.132 1.1495 -2.966 1.9965 z M62.166799999999995 29.983 c-0.5446 -1.2343 -0.821 -2.5744 -0.821 -3.9835 c0 -1.4082 0.27711 -2.7492 0.82172 -3.9843 c0.53672 -1.2203 1.2675 -2.3051 2.1731 -3.2256 c0.9126 -0.9266 2.0053 -1.6626 3.2484 -2.1889 c1.2465 -0.52796 2.5892 -0.79548 3.9913 -0.79548 c2.4677 0 4.6672 0.799 6.5492 2.3759 l2.0752 -2.0499 c-1.0542 -0.92572 -2.243 -1.6775 -3.5446 -2.2395 c-1.563 -0.67484 -3.2719 -1.0175 -5.0796 -1.0175 c-1.8068 0 -3.521 0.34879 -5.0972 1.0358 c-1.5883 0.6932 -2.9992 1.6442 -4.1932 2.8261 c-1.1932 1.1801 -2.1478 2.5813 -2.8392 4.1652 c-0.68796 1.5752 -1.0368 3.2903 -1.0368 5.098 c0 1.7544 0.34879 3.4494 1.0376 5.0384 c0.69144 1.5971 1.6478 3.0132 2.8418 4.208 c1.195 1.1932 2.605 2.1504 4.1908 2.8427 c1.5761 0.68796 3.2912 1.0368 5.0964 1.0368 c1.208 0 2.3724 -0.15297 3.4791 -0.45628 l-3.7466 -2.4791 c-1.3077 -0.031484 -2.5534 -0.29808 -3.7073 -0.79372 c-1.2282 -0.52536 -2.3182 -1.2596 -3.2395 -2.1819 c-0.92132 -0.9196 -1.6609 -2.007 -2.1993 -3.2317 z M104.764 18.806 c1.9904 1.9913 2.9991 4.4116 2.9982 7.1932 c0 2.7807 -1.007 5.2136 -2.994 7.23 c-2 1.9703 -4.4188 2.9642 -7.1996 2.9642 c-2.778 0 -5.2088 -0.99216 -7.2256 -2.9502 c-1.9756 -2.035 -2.9686 -4.466 -2.9686 -7.244 c0 -2.7798 0.99392 -5.1984 2.9546 -7.1888 c2.0254 -1.9965 4.458 -3.0044 7.2396 -3.0044 c2.7841 0 5.2048 1.0096 7.1952 3.0001 z M104.146 32.6164 c1.8287 -1.8558 2.7431 -4.0604 2.7431 -6.6164 c0 -2.5542 -0.91432 -4.7456 -2.743 -6.5752 s-4.0212 -2.7439 -6.576 -2.7439 s-4.7608 0.91432 -6.6164 2.7439 c-1.8025 1.8287 -2.7038 4.02 -2.7038 6.5752 s0.90124 4.7608 2.7038 6.6164 c1.8558 1.8025 4.0604 2.7038 6.6164 2.7038 c2.5542 0 4.7468 -0.90124 6.576 -2.7038 z M107.454 16.115 c2.7702 2.744 4.1556 6.0396 4.1564 9.8848 c0 3.9004 -1.3855 7.196 -4.1556 9.8848 c-2.7177 2.744 -6.0116 4.1156 -9.8848 4.1156 s-7.1688 -1.3724 -9.8848 -4.1156 c-2.744 -2.7168 -4.1156 -6.0116 -4.1156 -9.8848 c0 -3.8462 1.3715 -7.1408 4.1156 -9.8848 c2.6897 -2.744 5.9844 -4.1156 9.8848 -4.1156 c3.8724 0 7.1672 1.3724 9.884 4.1156 z M106.834 35.2692 c2.6294 -2.5534 3.9022 -5.5812 3.903 -9.2692 c0 -3.6364 -1.2745 -6.6664 -3.8969 -9.2632 c-2.5761 -2.6014 -5.606 -3.8628 -9.2692 -3.8628 c-3.6906 0 -6.7196 1.2605 -9.2608 3.8532 c-2.6032 2.6032 -3.8655 5.6348 -3.8655 9.2728 c0 3.6644 1.2614 6.694 3.8567 9.2632 c2.5752 2.6006 5.6052 3.862 9.2696 3.862 c3.6626 0 6.6932 -1.2614 9.2632 -3.8559 z M129.76 26 l14 -14 l0 28 l-4.64 0 l0 -16.743 l-9.3604 9.3604 l-14.04 -14.102 l0 -6.515 z M142.886 39.12548 l-0.000039062 -25.014 l-12.508 12.507 l-0.61716 0.61716 l-0.618 -0.61628 l-12.548 -12.512 l0 4.0473 l13.167 13.225 l10.233 -10.233 l0 17.979 l2.8917 0 z"></path></g>
&#x9;&#x9;&#x9;</g>
&#x9;&#x9;</svg>